<svg xmlns="http://www.w3.org/2000/svg" xmlns:xlink="http://www.w3.org/1999/xlink" width="134.849" height="120" viewBox="0 0 134.849 120">
  <defs>
    <clipPath id="clip-path">
      <rect id="Rectangle_5795" data-name="Rectangle 5795" width="134.849" height="120" fill="#fff"/>
    </clipPath>
    <clipPath id="clip-path-2">
      <path id="Path_8843" data-name="Path 8843" d="M746.121,207.948v-.012l-.026-.009Z" transform="translate(-746.095 -207.927)" fill="#fff"/>
    </clipPath>
    <clipPath id="clip-path-3">
      <path id="Path_8844" data-name="Path 8844" d="M746.325,213.636l2.713,1.5v-4.748l-2.741-2.3Z" transform="translate(-746.296 -208.087)" fill="#fff"/>
    </clipPath>
    <clipPath id="clip-path-4">
      <path id="Path_8845" data-name="Path 8845" d="M663.886,178.946l13.5,7.848v-5.1l-2.712-1.368v1.766l-8.074-4.332V145.043l8.019,2.951-10.73-9Z" transform="translate(-663.886 -138.997)" fill="#fff"/>
    </clipPath>
    <clipPath id="clip-path-6">
      <path id="Path_8848" data-name="Path 8848" d="M274.493,61.472v3.782L286.136,56.9Z" transform="translate(-274.493 -56.9)" fill="#fff"/>
    </clipPath>
    <clipPath id="clip-path-7">
      <path id="Path_8849" data-name="Path 8849" d="M274.3,63.958l.026,51.354,11.643-7.574V56.9Z" transform="translate(-274.296 -56.897)" fill="#fff"/>
    </clipPath>
    <clipPath id="clip-path-9">
      <path id="Path_8856" data-name="Path 8856" d="M534.523,4.978,548.59,9.645,534.523.435Z" transform="translate(-534.523 -0.435)" fill="#fff"/>
    </clipPath>
    <clipPath id="clip-path-10">
      <path id="Path_8857" data-name="Path 8857" d="M458.98,150.509l-.653.328-.783.393-.653.328-.783.393-.653.328-.783.393-.653.328-.783.393-.653.328-1.078.54v25.961l7.172-4.666,3.634,2.113v-28.83Z" transform="translate(-451.506 -148.837)" fill="#fff"/>
    </clipPath>
    <clipPath id="clip-path-11">
      <path id="Path_8858" data-name="Path 8858" d="M462.152,0l-10.86,5.355V8.483Z" transform="translate(-451.292 0.001)" fill="#fff"/>
    </clipPath>
  </defs>
  <g id="Group_19966" data-name="Group 19966" transform="translate(0 0.001)">
    <path id="Path_8789" data-name="Path 8789" d="M5.57,617.2v4.316h7.559v3.033H5.57V630.5H1.791V614.168H14.132V617.2Z" transform="translate(-1.557 -534.005)" fill="#fff"/>
    <g id="Group_19943" data-name="Group 19943" transform="translate(0 -0.001)">
      <g id="Group_19942" data-name="Group 19942" clip-path="url(#clip-path)">
        <path id="Path_8790" data-name="Path 8790" d="M111.242,627.819a8.136,8.136,0,0,1-3.2-3.021,8.686,8.686,0,0,1,0-8.656,8.14,8.14,0,0,1,3.2-3.021,10.108,10.108,0,0,1,9.157,0,8.329,8.329,0,0,1,0,14.7,10.108,10.108,0,0,1-9.157,0m7.2-2.788a4.774,4.774,0,0,0,1.831-1.855,5.84,5.84,0,0,0,0-5.413,4.772,4.772,0,0,0-1.831-1.855,5.467,5.467,0,0,0-5.226,0,4.769,4.769,0,0,0-1.831,1.855,5.839,5.839,0,0,0,0,5.413,4.771,4.771,0,0,0,1.831,1.855,5.466,5.466,0,0,0,5.226,0" transform="translate(-92.939 -532.139)" fill="#fff"/>
        <path id="Path_8791" data-name="Path 8791" d="M276.018,630.5l-3.15-4.549h-3.476V630.5h-3.779V614.168h7.069a9.078,9.078,0,0,1,3.768.723,5.6,5.6,0,0,1,2.461,2.053,5.657,5.657,0,0,1,.863,3.15,5.32,5.32,0,0,1-3.36,5.156l3.663,5.249Zm-.957-12.517a3.97,3.97,0,0,0-2.59-.735h-3.08v5.693h3.08a3.925,3.925,0,0,0,2.59-.747,2.944,2.944,0,0,0,0-4.211" transform="translate(-230.944 -534.004)" fill="#fff"/>
        <path id="Path_8792" data-name="Path 8792" d="M411.847,630.5l-.023-9.8-4.806,8.072h-1.7l-4.783-7.862V630.5h-3.546V614.168h3.126l6.113,10.149,6.019-10.149h3.1l.047,16.331Z" transform="translate(-345.169 -534.004)" fill="#fff"/>
        <path id="Path_8793" data-name="Path 8793" d="M564.168,627.819a8.135,8.135,0,0,1-3.2-3.021,8.687,8.687,0,0,1,0-8.656,8.139,8.139,0,0,1,3.2-3.021,10.108,10.108,0,0,1,9.157,0,8.33,8.33,0,0,1,0,14.7,10.108,10.108,0,0,1-9.157,0m7.2-2.788a4.774,4.774,0,0,0,1.831-1.855,5.84,5.84,0,0,0,0-5.413,4.772,4.772,0,0,0-1.831-1.855,5.467,5.467,0,0,0-5.226,0,4.769,4.769,0,0,0-1.832,1.855,5.84,5.84,0,0,0,0,5.413,4.771,4.771,0,0,0,1.832,1.855,5.466,5.466,0,0,0,5.226,0" transform="translate(-486.747 -532.139)" fill="#fff"/>
        <path id="Path_8794" data-name="Path 8794" d="M733.516,614.169V630.5h-3.1l-8.142-9.915V630.5h-3.733V614.169h3.126l8.119,9.915v-9.915Z" transform="translate(-624.75 -534.004)" fill="#fff"/>
        <rect id="Rectangle_5789" data-name="Rectangle 5789" width="3.779" height="16.331" transform="translate(112.638 80.165)" fill="#fff"/>
        <path id="Path_8795" data-name="Path 8795" d="M918.049,627.829a8.1,8.1,0,0,1-3.173-3.01,8.774,8.774,0,0,1,0-8.7,8.1,8.1,0,0,1,3.173-3.01,10.123,10.123,0,0,1,8.375-.338,7.692,7.692,0,0,1,2.882,2.146l-2.427,2.24a5.218,5.218,0,0,0-4.106-1.913,5.452,5.452,0,0,0-2.706.665,4.727,4.727,0,0,0-1.855,1.855,5.84,5.84,0,0,0,0,5.413,4.727,4.727,0,0,0,1.855,1.855,5.453,5.453,0,0,0,2.706.665,5.191,5.191,0,0,0,4.106-1.936l2.427,2.24a7.565,7.565,0,0,1-2.893,2.17,9.608,9.608,0,0,1-3.849.746,9.379,9.379,0,0,1-4.515-1.085" transform="translate(-794.457 -532.138)" fill="#fff"/>
        <path id="Path_8796" data-name="Path 8796" d="M0,772.783H2.957a4.276,4.276,0,0,1,1.975.441,3.241,3.241,0,0,1,1.338,1.238,3.751,3.751,0,0,1,0,3.658,3.238,3.238,0,0,1-1.338,1.238,4.273,4.273,0,0,1-1.975.441H0Zm2.9,6.144a3.246,3.246,0,0,0,1.5-.331,2.391,2.391,0,0,0,1-.927,2.882,2.882,0,0,0,0-2.756,2.392,2.392,0,0,0-1-.927,3.245,3.245,0,0,0-1.5-.331H1v5.272Z" transform="translate(0 -671.915)" fill="#fff"/>
        <path id="Path_8797" data-name="Path 8797" d="M63.86,788.48H59.55a1.668,1.668,0,0,0,.616,1.128,2.01,2.01,0,0,0,1.308.426,1.97,1.97,0,0,0,1.533-.642l.531.621a2.328,2.328,0,0,1-.9.641,3.381,3.381,0,0,1-2.691-.125,2.464,2.464,0,0,1-1.007-.967,2.773,2.773,0,0,1-.356-1.4,2.817,2.817,0,0,1,.346-1.393,2.476,2.476,0,0,1,.952-.967,2.711,2.711,0,0,1,1.368-.346,2.657,2.657,0,0,1,1.358.346,2.431,2.431,0,0,1,.932.967,2.95,2.95,0,0,1,.336,1.423,2.773,2.773,0,0,1-.02.291M60.1,786.686a1.7,1.7,0,0,0-.546,1.1h3.408a1.708,1.708,0,0,0-.546-1.1,1.793,1.793,0,0,0-2.315-.005" transform="translate(-50.941 -682.931)" fill="#fff"/>
        <path id="Path_8798" data-name="Path 8798" d="M105.143,790.7a2.752,2.752,0,0,1-.942-.446l.4-.762a2.873,2.873,0,0,0,.852.4,3.506,3.506,0,0,0,1.012.15q1.263,0,1.263-.722a.468.468,0,0,0-.17-.381,1.082,1.082,0,0,0-.426-.205q-.256-.065-.727-.145a7.107,7.107,0,0,1-1.047-.231,1.611,1.611,0,0,1-.7-.441,1.226,1.226,0,0,1-.291-.872,1.362,1.362,0,0,1,.6-1.158,2.692,2.692,0,0,1,1.614-.436,4.449,4.449,0,0,1,1.062.13,2.86,2.86,0,0,1,.872.351l-.411.762a2.765,2.765,0,0,0-1.533-.421,1.771,1.771,0,0,0-.932.2.6.6,0,0,0-.321.531.506.506,0,0,0,.181.411,1.138,1.138,0,0,0,.446.22q.265.07.747.16a8.112,8.112,0,0,1,1.037.236,1.551,1.551,0,0,1,.677.426,1.187,1.187,0,0,1,.281.842,1.328,1.328,0,0,1-.616,1.148,2.91,2.91,0,0,1-1.679.426,4.456,4.456,0,0,1-1.253-.175" transform="translate(-90.6 -682.931)" fill="#fff"/>
        <path id="Path_8799" data-name="Path 8799" d="M146.7,769.478a.591.591,0,0,1-.185-.441.608.608,0,0,1,.185-.446.632.632,0,0,1,.466-.185.652.652,0,0,1,.466.176.575.575,0,0,1,.185.436.62.62,0,0,1-.185.456.632.632,0,0,1-.466.186.64.64,0,0,1-.466-.181m-.015,1.2h.962v5.312h-.962Z" transform="translate(-127.388 -668.109)" fill="#fff"/>
        <path id="Path_8800" data-name="Path 8800" d="M171.05,785.5v4.591a2.743,2.743,0,0,1-.692,2.06,2.868,2.868,0,0,1-2.065.667,4.94,4.94,0,0,1-1.433-.206,2.839,2.839,0,0,1-1.1-.586l.461-.742a2.718,2.718,0,0,0,.917.506,3.482,3.482,0,0,0,1.128.185,1.891,1.891,0,0,0,1.378-.441,1.815,1.815,0,0,0,.446-1.343v-.421a2.128,2.128,0,0,1-.837.616,2.786,2.786,0,0,1-1.077.206,2.9,2.9,0,0,1-1.378-.326,2.422,2.422,0,0,1-.967-.912,2.727,2.727,0,0,1,0-2.676,2.39,2.39,0,0,1,.967-.907,2.941,2.941,0,0,1,1.378-.321,2.818,2.818,0,0,1,1.118.221,2.076,2.076,0,0,1,.847.651V785.5Zm-1.829,4.029a1.63,1.63,0,0,0,.651-.616,1.721,1.721,0,0,0,.236-.9,1.626,1.626,0,0,0-.511-1.248,2.062,2.062,0,0,0-2.636,0,1.626,1.626,0,0,0-.511,1.248,1.72,1.72,0,0,0,.235.9,1.629,1.629,0,0,0,.651.616,1.99,1.99,0,0,0,.947.22,1.969,1.969,0,0,0,.937-.22" transform="translate(-143.878 -682.931)" fill="#fff"/>
        <path id="Path_8801" data-name="Path 8801" d="M226.668,786.039a2.307,2.307,0,0,1,.6,1.719v3.057H226.3v-2.947a1.631,1.631,0,0,0-.371-1.163,1.4,1.4,0,0,0-1.062-.391,1.656,1.656,0,0,0-1.233.456,1.783,1.783,0,0,0-.451,1.308v2.736h-.962V785.5h.922v.8a1.872,1.872,0,0,1,.787-.631,2.749,2.749,0,0,1,1.127-.22,2.195,2.195,0,0,1,1.609.586" transform="translate(-193.217 -682.931)" fill="#fff"/>
        <path id="Path_8802" data-name="Path 8802" d="M297.373,779.508l-.932-.932a3.236,3.236,0,0,1-2.345.9,3.3,3.3,0,0,1-1.263-.23,2.046,2.046,0,0,1-.877-.646,1.526,1.526,0,0,1-.316-.947,1.773,1.773,0,0,1,.4-1.138,4.587,4.587,0,0,1,1.308-1.017,3.51,3.51,0,0,1-.652-.832,1.667,1.667,0,0,1-.19-.772,1.414,1.414,0,0,1,.516-1.143,2.082,2.082,0,0,1,1.378-.431,1.931,1.931,0,0,1,1.273.391,1.319,1.319,0,0,1,.471,1.072,1.458,1.458,0,0,1-.346.952,4.207,4.207,0,0,1-1.148.882l1.734,1.724a4.47,4.47,0,0,0,.431-1.273l.772.251a4.633,4.633,0,0,1-.611,1.6l.942.942Zm-1.5-1.493-1.995-1.985a3.6,3.6,0,0,0-1.007.747,1.189,1.189,0,0,0-.286.777.954.954,0,0,0,.436.812,1.916,1.916,0,0,0,1.137.311,2.34,2.34,0,0,0,1.714-.662m-2.21-4.756a.784.784,0,0,0-.266.616,1.024,1.024,0,0,0,.145.521,3.933,3.933,0,0,0,.566.682,4.311,4.311,0,0,0,.957-.671.875.875,0,0,0,.266-.611.7.7,0,0,0-.246-.561,1.022,1.022,0,0,0-.687-.211,1.071,1.071,0,0,0-.737.236" transform="translate(-253.574 -671.514)" fill="#fff"/>
        <path id="Path_8803" data-name="Path 8803" d="M367.012,778.879a3.429,3.429,0,0,1-1.328-1.283,3.757,3.757,0,0,1,0-3.679,3.423,3.423,0,0,1,1.333-1.283,3.9,3.9,0,0,1,1.9-.466,3.978,3.978,0,0,1,1.5.276,3.078,3.078,0,0,1,1.163.817l-.652.631a2.615,2.615,0,0,0-1.975-.832,2.861,2.861,0,0,0-1.413.351,2.545,2.545,0,0,0-.987.967,2.847,2.847,0,0,0,0,2.756,2.546,2.546,0,0,0,.987.967,2.86,2.86,0,0,0,1.413.351,2.62,2.62,0,0,0,1.975-.842l.652.631a3.117,3.117,0,0,1-1.168.822,3.947,3.947,0,0,1-1.508.281,3.874,3.874,0,0,1-1.9-.466" transform="translate(-317.535 -671.381)" fill="#fff"/>
        <path id="Path_8804" data-name="Path 8804" d="M419.915,790.525a2.542,2.542,0,0,1-.987-.967,2.926,2.926,0,0,1,0-2.8,2.508,2.508,0,0,1,.987-.962,3.092,3.092,0,0,1,2.841,0,2.518,2.518,0,0,1,.982.962,2.924,2.924,0,0,1,0,2.8,2.553,2.553,0,0,1-.982.967,3.052,3.052,0,0,1-2.841,0m2.34-.727a1.662,1.662,0,0,0,.636-.661,2.186,2.186,0,0,0,0-1.954,1.63,1.63,0,0,0-.636-.656,1.939,1.939,0,0,0-1.834,0,1.662,1.662,0,0,0-.641.656,2.146,2.146,0,0,0,0,1.954,1.7,1.7,0,0,0,.641.661,1.9,1.9,0,0,0,1.834,0" transform="translate(-363.938 -682.931)" fill="#fff"/>
        <path id="Path_8805" data-name="Path 8805" d="M475.538,786.039a2.307,2.307,0,0,1,.6,1.719v3.057h-.962v-2.947a1.631,1.631,0,0,0-.371-1.163,1.4,1.4,0,0,0-1.062-.391,1.656,1.656,0,0,0-1.233.456,1.783,1.783,0,0,0-.451,1.308v2.736h-.962V785.5h.922v.8a1.87,1.87,0,0,1,.787-.631,2.75,2.75,0,0,1,1.128-.22,2.2,2.2,0,0,1,1.609.586" transform="translate(-409.603 -682.931)" fill="#fff"/>
        <path id="Path_8806" data-name="Path 8806" d="M519.184,790.7a2.752,2.752,0,0,1-.942-.446l.4-.762a2.874,2.874,0,0,0,.852.4,3.5,3.5,0,0,0,1.012.15q1.263,0,1.263-.722a.468.468,0,0,0-.17-.381,1.081,1.081,0,0,0-.426-.205q-.256-.065-.727-.145a7.108,7.108,0,0,1-1.047-.231,1.612,1.612,0,0,1-.7-.441,1.226,1.226,0,0,1-.291-.872,1.362,1.362,0,0,1,.6-1.158,2.693,2.693,0,0,1,1.614-.436,4.451,4.451,0,0,1,1.062.13,2.857,2.857,0,0,1,.872.351l-.411.762a2.766,2.766,0,0,0-1.534-.421,1.771,1.771,0,0,0-.932.2.6.6,0,0,0-.321.531.507.507,0,0,0,.18.411,1.139,1.139,0,0,0,.446.22q.265.07.747.16a8.118,8.118,0,0,1,1.037.236,1.552,1.552,0,0,1,.676.426,1.187,1.187,0,0,1,.281.842,1.328,1.328,0,0,1-.616,1.148,2.909,2.909,0,0,1-1.679.426,4.454,4.454,0,0,1-1.253-.175" transform="translate(-450.598 -682.931)" fill="#fff"/>
        <path id="Path_8807" data-name="Path 8807" d="M559.77,783.093a1.437,1.437,0,0,1-.521.276,2.179,2.179,0,0,1-.642.1,1.7,1.7,0,0,1-1.243-.431,1.646,1.646,0,0,1-.441-1.233v-2.917h-.9v-.792h.9v-1.163h.962v1.163h1.523v.792h-1.523v2.877a.932.932,0,0,0,.216.661.8.8,0,0,0,.616.231,1.16,1.16,0,0,0,.752-.251Z" transform="translate(-483.446 -675.52)" fill="#fff"/>
        <path id="Path_8808" data-name="Path 8808" d="M595.311,785.693a2.692,2.692,0,0,1,1.193-.241v.932a1.888,1.888,0,0,0-.221-.01,1.619,1.619,0,0,0-1.228.466,1.844,1.844,0,0,0-.446,1.328v2.646h-.962V785.5h.922v.892a1.642,1.642,0,0,1,.742-.7" transform="translate(-516.161 -682.93)" fill="#fff"/>
        <path id="Path_8809" data-name="Path 8809" d="M629.748,785.837v5.312h-.912v-.8a1.934,1.934,0,0,1-.767.637,2.394,2.394,0,0,1-1.037.225,2.318,2.318,0,0,1-1.674-.586,2.286,2.286,0,0,1-.611-1.729v-3.057h.962v2.947a1.65,1.65,0,0,0,.371,1.168,1.384,1.384,0,0,0,1.063.4,1.585,1.585,0,0,0,1.2-.461,1.809,1.809,0,0,0,.441-1.3v-2.746Z" transform="translate(-543.201 -683.265)" fill="#fff"/>
        <path id="Path_8810" data-name="Path 8810" d="M674.711,790.525a2.571,2.571,0,0,1-1-.967,2.891,2.891,0,0,1,0-2.8,2.535,2.535,0,0,1,1-.962,2.983,2.983,0,0,1,1.448-.346,2.783,2.783,0,0,1,1.288.291,2.073,2.073,0,0,1,.877.842l-.732.471a1.639,1.639,0,0,0-.622-.571,1.773,1.773,0,0,0-.822-.19,1.9,1.9,0,0,0-.937.231,1.643,1.643,0,0,0-.651.656,2.165,2.165,0,0,0,0,1.964,1.641,1.641,0,0,0,.651.657,1.9,1.9,0,0,0,.937.231,1.772,1.772,0,0,0,.822-.19,1.635,1.635,0,0,0,.622-.571l.732.461a2.1,2.1,0,0,1-.877.847,2.741,2.741,0,0,1-1.288.3,2.948,2.948,0,0,1-1.448-.351" transform="translate(-585.463 -682.931)" fill="#fff"/>
        <path id="Path_8811" data-name="Path 8811" d="M719.41,783.093a1.438,1.438,0,0,1-.521.276,2.179,2.179,0,0,1-.642.1,1.7,1.7,0,0,1-1.243-.431,1.646,1.646,0,0,1-.441-1.233v-2.917h-.9v-.792h.9v-1.163h.962v1.163h1.523v.792h-1.523v2.877a.932.932,0,0,0,.216.661.8.8,0,0,0,.616.231,1.16,1.16,0,0,0,.752-.251Z" transform="translate(-622.249 -675.52)" fill="#fff"/>
        <path id="Path_8812" data-name="Path 8812" d="M752.167,769.478a.591.591,0,0,1-.185-.441.607.607,0,0,1,.185-.446.633.633,0,0,1,.466-.185.651.651,0,0,1,.466.176.575.575,0,0,1,.185.436.619.619,0,0,1-.185.456.632.632,0,0,1-.466.186.641.641,0,0,1-.466-.181m-.015,1.2h.962v5.312h-.962Z" transform="translate(-653.829 -668.109)" fill="#fff"/>
        <path id="Path_8813" data-name="Path 8813" d="M772.291,790.525a2.543,2.543,0,0,1-.987-.967,2.925,2.925,0,0,1,0-2.8,2.508,2.508,0,0,1,.987-.962,2.915,2.915,0,0,1,1.423-.346,2.886,2.886,0,0,1,1.418.346,2.519,2.519,0,0,1,.982.962,2.924,2.924,0,0,1,0,2.8,2.553,2.553,0,0,1-.982.967,2.851,2.851,0,0,1-1.418.351,2.88,2.88,0,0,1-1.423-.351m2.34-.727a1.663,1.663,0,0,0,.637-.661,2.187,2.187,0,0,0,0-1.954,1.63,1.63,0,0,0-.637-.656,1.938,1.938,0,0,0-1.834,0,1.662,1.662,0,0,0-.641.656,2.146,2.146,0,0,0,0,1.954,1.7,1.7,0,0,0,.641.661,1.9,1.9,0,0,0,1.834,0" transform="translate(-670.32 -682.931)" fill="#fff"/>
        <path id="Path_8814" data-name="Path 8814" d="M827.915,786.039a2.307,2.307,0,0,1,.6,1.719v3.057h-.962v-2.947a1.631,1.631,0,0,0-.371-1.163,1.4,1.4,0,0,0-1.062-.391,1.655,1.655,0,0,0-1.233.456,1.783,1.783,0,0,0-.451,1.308v2.736h-.962V785.5h.922v.8a1.871,1.871,0,0,1,.787-.631,2.751,2.751,0,0,1,1.128-.22,2.195,2.195,0,0,1,1.609.586" transform="translate(-715.986 -682.931)" fill="#fff"/>
        <path id="Path_8815" data-name="Path 8815" d="M897.5,772.783h1v6.144h3.8v.872h-4.8Z" transform="translate(-780.349 -671.915)" fill="#fff"/>
        <path id="Path_8816" data-name="Path 8816" d="M939.561,783.093a1.439,1.439,0,0,1-.521.276,2.176,2.176,0,0,1-.641.1,1.7,1.7,0,0,1-1.243-.431,1.646,1.646,0,0,1-.441-1.233v-2.917h-.9v-.792h.9v-1.163h.962v1.163H939.2v.792h-1.523v2.877a.932.932,0,0,0,.216.661.8.8,0,0,0,.616.231,1.16,1.16,0,0,0,.752-.251Z" transform="translate(-813.665 -675.52)" fill="#fff"/>
        <path id="Path_8817" data-name="Path 8817" d="M973.8,769.557v7.437h-.922v-.842a2.082,2.082,0,0,1-.812.671,2.514,2.514,0,0,1-1.083.231,2.789,2.789,0,0,1-1.383-.341,2.442,2.442,0,0,1-.958-.957,2.852,2.852,0,0,1-.346-1.418,2.822,2.822,0,0,1,.346-1.413,2.451,2.451,0,0,1,.958-.952,2.791,2.791,0,0,1,1.383-.341,2.546,2.546,0,0,1,1.052.216,2.046,2.046,0,0,1,.8.636v-2.927Zm-1.824,6.42a1.653,1.653,0,0,0,.641-.661,2.187,2.187,0,0,0,0-1.954,1.619,1.619,0,0,0-.641-.656,1.929,1.929,0,0,0-1.829,0,1.662,1.662,0,0,0-.641.656,2.146,2.146,0,0,0,0,1.954,1.7,1.7,0,0,0,.641.661,1.893,1.893,0,0,0,1.829,0" transform="translate(-841.908 -669.11)" fill="#fff"/>
        <path id="Path_8818" data-name="Path 8818" d="M1021.172,817.654a.663.663,0,0,1-.2-.5.65.65,0,0,1,.2-.486.664.664,0,0,1,.481-.2.642.642,0,0,1,.471.19.728.728,0,0,1-.005.987.636.636,0,0,1-.466.2.664.664,0,0,1-.481-.2" transform="translate(-887.708 -709.905)" fill="#fff"/>
        <path id="Path_8819" data-name="Path 8819" d="M213.758,887.21V885.2l-1.5-2.727h.7l.668,1.307c.183.358.323.647.471.977h.014c.134-.309.3-.618.478-.977l.682-1.307h.7l-1.588,2.72v2.017Z" transform="translate(-184.556 -767.288)" fill="#fff"/>
        <path id="Path_8820" data-name="Path 8820" d="M241.972,893.862a1.663,1.663,0,0,1-1.694,1.806,1.617,1.617,0,0,1-1.631-1.75,1.661,1.661,0,0,1,1.687-1.807,1.611,1.611,0,0,1,1.638,1.75m-2.7.035c0,.745.429,1.307,1.033,1.307s1.033-.555,1.033-1.321c0-.576-.288-1.307-1.019-1.307s-1.047.675-1.047,1.321" transform="translate(-207.498 -775.669)" fill="#fff"/>
        <path id="Path_8821" data-name="Path 8821" d="M272.8,895.179c0,.351.007.661.028.928h-.548l-.035-.555h-.014a1.28,1.28,0,0,1-1.125.633c-.534,0-1.174-.3-1.174-1.49v-1.989h.619v1.884c0,.647.2,1.082.759,1.082a.894.894,0,0,0,.815-.562.906.906,0,0,0,.056-.316v-2.087h.618Z" transform="translate(-234.702 -776.184)" fill="#fff"/>
        <path id="Path_8822" data-name="Path 8822" d="M299.58,893.251c0-.4-.007-.745-.028-1.061h.541l.021.668h.028a1.02,1.02,0,0,1,.942-.745.676.676,0,0,1,.176.021v.583a.932.932,0,0,0-.211-.021.868.868,0,0,0-.829.794,1.745,1.745,0,0,0-.028.288v1.813h-.611Z" transform="translate(-260.453 -775.669)" fill="#fff"/>
        <path id="Path_8823" data-name="Path 8823" d="M328.954,882.3a8.781,8.781,0,0,1,1.3-.1,2.713,2.713,0,0,1,1.919.59,2.182,2.182,0,0,1,.668,1.7,2.506,2.506,0,0,1-.682,1.842,2.918,2.918,0,0,1-2.094.682,9.879,9.879,0,0,1-1.111-.056Zm.612,4.189a3.851,3.851,0,0,0,.618.035,1.821,1.821,0,0,0,2.017-2.01,1.69,1.69,0,0,0-1.919-1.827,3.472,3.472,0,0,0-.717.063Z" transform="translate(-286.017 -767.054)" fill="#fff"/>
        <path id="Path_8824" data-name="Path 8824" d="M364.469,893.251c0-.4-.007-.745-.028-1.061h.541l.021.668h.028a1.021,1.021,0,0,1,.942-.745.676.676,0,0,1,.176.021v.583a.931.931,0,0,0-.211-.021.868.868,0,0,0-.829.794,1.739,1.739,0,0,0-.028.288v1.813h-.612Z" transform="translate(-316.872 -775.669)" fill="#fff"/>
        <path id="Path_8825" data-name="Path 8825" d="M380.433,894a1.09,1.09,0,0,0,1.167,1.181,2.236,2.236,0,0,0,.942-.176l.105.443a2.755,2.755,0,0,1-1.131.211,1.58,1.58,0,0,1-1.673-1.715,1.652,1.652,0,0,1,1.6-1.835,1.441,1.441,0,0,1,1.406,1.6,2.368,2.368,0,0,1-.021.288Zm1.813-.443a.881.881,0,0,0-.857-1.005,1.025,1.025,0,0,0-.949,1.005Z" transform="translate(-330.264 -775.669)" fill="#fff"/>
        <path id="Path_8826" data-name="Path 8826" d="M408.812,895.591l-.049-.429h-.021a1.267,1.267,0,0,1-1.04.506.969.969,0,0,1-1.04-.977c0-.822.731-1.272,2.045-1.265v-.07a.7.7,0,0,0-.773-.787,1.692,1.692,0,0,0-.885.253l-.141-.408a2.112,2.112,0,0,1,1.118-.3c1.04,0,1.293.71,1.293,1.392v1.272a4.78,4.78,0,0,0,.056.815Zm-.091-1.736c-.675-.014-1.441.105-1.441.766a.547.547,0,0,0,.583.59.846.846,0,0,0,.822-.569.637.637,0,0,0,.035-.2Z" transform="translate(-353.581 -775.669)" fill="#fff"/>
        <path id="Path_8827" data-name="Path 8827" d="M434.476,893.11c0-.351-.007-.639-.028-.921h.541l.028.548h.021a1.172,1.172,0,0,1,1.068-.625,1.006,1.006,0,0,1,.963.682h.014a1.4,1.4,0,0,1,.38-.443,1.16,1.16,0,0,1,.752-.239c.45,0,1.118.3,1.118,1.476v2h-.6v-1.926c0-.654-.239-1.047-.738-1.047a.8.8,0,0,0-.731.562,1.018,1.018,0,0,0-.049.309v2.1h-.6v-2.038c0-.541-.239-.935-.71-.935a.922.922,0,0,0-.815.921v2.052h-.6Z" transform="translate(-377.741 -775.669)" fill="#fff"/>
        <path id="Path_8828" data-name="Path 8828" d="M491.764,882.473v1.982h2.291v-1.982h.618v4.737h-.618V884.99h-2.291v2.221h-.612v-4.737Z" transform="translate(-427.045 -767.288)" fill="#fff"/>
        <path id="Path_8829" data-name="Path 8829" d="M527.541,893.862a1.663,1.663,0,0,1-1.694,1.806,1.617,1.617,0,0,1-1.631-1.75,1.661,1.661,0,0,1,1.687-1.807,1.611,1.611,0,0,1,1.638,1.75m-2.7.035c0,.745.429,1.307,1.033,1.307s1.033-.555,1.033-1.321c0-.576-.288-1.307-1.019-1.307s-1.047.675-1.047,1.321" transform="translate(-455.792 -775.669)" fill="#fff"/>
        <path id="Path_8830" data-name="Path 8830" d="M555.479,893.11c0-.351-.007-.639-.028-.921h.541l.028.548h.021a1.173,1.173,0,0,1,1.068-.625,1.006,1.006,0,0,1,.963.682h.014a1.4,1.4,0,0,1,.38-.443,1.16,1.16,0,0,1,.752-.239c.45,0,1.117.3,1.117,1.476v2h-.6v-1.926c0-.654-.239-1.047-.738-1.047a.8.8,0,0,0-.731.562,1.012,1.012,0,0,0-.049.309v2.1h-.6v-2.038c0-.541-.239-.935-.71-.935a.922.922,0,0,0-.815.921v2.052h-.6Z" transform="translate(-482.95 -775.669)" fill="#fff"/>
        <path id="Path_8831" data-name="Path 8831" d="M599.283,894a1.09,1.09,0,0,0,1.167,1.181,2.236,2.236,0,0,0,.942-.176l.105.443a2.756,2.756,0,0,1-1.132.211,1.58,1.58,0,0,1-1.673-1.715,1.652,1.652,0,0,1,1.6-1.835,1.441,1.441,0,0,1,1.406,1.6,2.339,2.339,0,0,1-.021.288Zm1.813-.443a.881.881,0,0,0-.857-1.005,1.025,1.025,0,0,0-.949,1.005Z" transform="translate(-520.548 -775.669)" fill="#fff"/>
        <path id="Path_8832" data-name="Path 8832" d="M637.513,885.72l-.492,1.49h-.633L638,882.473h.738l1.617,4.737H639.7l-.506-1.49Zm1.553-.478-.464-1.364c-.105-.309-.176-.59-.246-.864h-.014c-.07.281-.148.569-.239.857l-.464,1.371Z" transform="translate(-553.323 -767.288)" fill="#fff"/>
        <path id="Path_8833" data-name="Path 8833" d="M668.471,892.705l.45,1.729c.1.379.19.731.253,1.082h.021c.077-.344.19-.71.3-1.075l.555-1.736h.52l.527,1.7c.126.408.225.766.3,1.11h.021a10.234,10.234,0,0,1,.26-1.1l.485-1.708h.612l-1.1,3.4h-.562l-.52-1.623a11.307,11.307,0,0,1-.3-1.118h-.014a10.053,10.053,0,0,1-.309,1.125l-.548,1.616h-.562l-1.026-3.4Z" transform="translate(-580.668 -776.184)" fill="#fff"/>
        <path id="Path_8834" data-name="Path 8834" d="M710.322,895.591l-.049-.429h-.021a1.267,1.267,0,0,1-1.04.506.969.969,0,0,1-1.04-.977c0-.822.731-1.272,2.045-1.265v-.07a.7.7,0,0,0-.773-.787,1.692,1.692,0,0,0-.885.253l-.141-.408a2.112,2.112,0,0,1,1.118-.3c1.04,0,1.293.71,1.293,1.392v1.272a4.8,4.8,0,0,0,.056.815Zm-.091-1.736c-.675-.014-1.441.105-1.441.766a.547.547,0,0,0,.583.59.846.846,0,0,0,.822-.569.637.637,0,0,0,.035-.2Z" transform="translate(-615.737 -775.669)" fill="#fff"/>
        <path id="Path_8835" data-name="Path 8835" d="M736.347,882.806a.383.383,0,0,1-.766,0,.377.377,0,0,1,.386-.386.367.367,0,0,1,.38.386m-.689.956h.619v3.4h-.619Z" transform="translate(-639.569 -767.242)" fill="#fff"/>
        <path id="Path_8836" data-name="Path 8836" d="M746.943,885.219v.977h.886v.471h-.886V888.5c0,.422.12.661.464.661a1.374,1.374,0,0,0,.359-.042l.028.464a1.513,1.513,0,0,1-.548.084.856.856,0,0,1-.668-.26,1.26,1.26,0,0,1-.239-.886v-1.856h-.527V886.2h.527v-.815Z" transform="translate(-648.464 -769.675)" fill="#fff"/>
        <path id="Path_8837" data-name="Path 8837" d="M764.921,894.958a1.62,1.62,0,0,0,.815.246c.45,0,.661-.225.661-.506s-.176-.457-.633-.625c-.612-.218-.9-.555-.9-.963a1.049,1.049,0,0,1,1.174-1,1.7,1.7,0,0,1,.836.211l-.155.45a1.322,1.322,0,0,0-.7-.2c-.366,0-.569.211-.569.464,0,.281.2.408.647.576.59.225.893.52.893,1.026,0,.6-.464,1.019-1.272,1.019a1.94,1.94,0,0,1-.956-.232Z" transform="translate(-664.945 -775.668)" fill="#fff"/>
        <rect id="Rectangle_5790" data-name="Rectangle 5790" width="95.441" height="0.261" transform="translate(16.402 112.925)" fill="#fff"/>
        <path id="Path_8838" data-name="Path 8838" d="M452.584,56.2l-1.078.54V37.2l1.078-.522Z" transform="translate(-392.573 -31.89)" fill="#fff"/>
        <rect id="Rectangle_5791" data-name="Rectangle 5791" width="3.116" height="3.116" transform="translate(61.795 62.355)" fill="#fff"/>
        <rect id="Rectangle_5792" data-name="Rectangle 5792" width="3.116" height="3.116" transform="translate(66.834 62.355)" fill="#fff"/>
        <rect id="Rectangle_5793" data-name="Rectangle 5793" width="3.116" height="3.116" transform="translate(61.795 67.28)" fill="#fff"/>
        <rect id="Rectangle_5794" data-name="Rectangle 5794" width="3.116" height="3.116" transform="translate(66.834 67.28)" fill="#fff"/>
        <path id="Path_8839" data-name="Path 8839" d="M736.456,254.1v.34l-4.5-2.29V231.264l.307.1v20.593Z" transform="translate(-636.421 -201.078)" fill="#fff"/>
        <path id="Path_8840" data-name="Path 8840" d="M728.01,252.935v.34l-5.763-2.893V228.1l.307.1v21.985Z" transform="translate(-627.976 -198.329)" fill="#fff"/>
        <path id="Path_8841" data-name="Path 8841" d="M719.558,251.781v.34l-7.032-3.509V224.941l.308.1v23.378Z" transform="translate(-619.522 -195.58)" fill="#fff"/>
        <path id="Path_8842" data-name="Path 8842" d="M711.113,250.638v.34l-8.3-4.136V221.779l.308.1v24.769Z" transform="translate(-611.078 -192.831)" fill="#fff"/>
      </g>
    </g>
    <g id="Group_19945" data-name="Group 19945" transform="translate(97.384 27.139)">
      <g id="Group_19944" data-name="Group 19944" clip-path="url(#clip-path-2)">
        <rect id="Rectangle_5796" data-name="Rectangle 5796" width="0.028" height="0.031" transform="translate(-0.006 0.019) rotate(-71.611)" fill="#fff"/>
      </g>
    </g>
    <g id="Group_19947" data-name="Group 19947" transform="translate(97.411 27.16)">
      <g id="Group_19946" data-name="Group 19946" clip-path="url(#clip-path-3)">
        <rect id="Rectangle_5797" data-name="Rectangle 5797" width="7.552" height="4.824" transform="translate(-2.109 6.346) rotate(-71.617)" fill="#fff"/>
      </g>
    </g>
    <g id="Group_19949" data-name="Group 19949" transform="translate(86.654 18.142)">
      <g id="Group_19948" data-name="Group 19948" clip-path="url(#clip-path-4)">
        <rect id="Rectangle_5798" data-name="Rectangle 5798" width="49.615" height="27.883" transform="matrix(0.315, -0.949, 0.949, 0.315, -14.305, 43.043)" fill="#fff"/>
      </g>
    </g>
    <g id="Group_19951" data-name="Group 19951" transform="translate(0 -0.001)">
      <g id="Group_19950" data-name="Group 19950" clip-path="url(#clip-path)">
        <path id="Path_8846" data-name="Path 8846" d="M363.693,56.9l11.731,4.675-11.731-.838Z" transform="translate(-316.222 -49.473)" fill="#fff"/>
        <path id="Path_8847" data-name="Path 8847" d="M363.693,271.315l11.731,4.675-11.731-.838Z" transform="translate(-316.222 -235.901)" fill="#fff"/>
      </g>
    </g>
    <g id="Group_19953" data-name="Group 19953" transform="translate(35.828 7.426)">
      <g id="Group_19952" data-name="Group 19952" clip-path="url(#clip-path-6)">
        <rect id="Rectangle_5800" data-name="Rectangle 5800" width="11.643" height="8.354" transform="translate(0)" fill="#fff"/>
      </g>
    </g>
    <g id="Group_19955" data-name="Group 19955" transform="translate(35.803 7.426)">
      <g id="Group_19954" data-name="Group 19954" clip-path="url(#clip-path-7)">
        <rect id="Rectangle_5801" data-name="Rectangle 5801" width="11.669" height="58.415" transform="translate(0)" fill="#fff"/>
      </g>
    </g>
    <g id="Group_19957" data-name="Group 19957" transform="translate(0 -0.001)">
      <g id="Group_19956" data-name="Group 19956" clip-path="url(#clip-path)">
        <path id="Path_8850" data-name="Path 8850" d="M621.428,58.877v47.212l-3.133-1.821V57.087Z" transform="translate(-537.592 -49.636)" fill="#fff"/>
        <path id="Path_8851" data-name="Path 8851" d="M465.549,50.835l-.783.393V31.717l.783-.38Z" transform="translate(-404.102 -27.247)" fill="#fff"/>
        <path id="Path_8852" data-name="Path 8852" d="M476.549,45.489l-.783.393V26.4l.783-.379Z" transform="translate(-413.666 -22.621)" fill="#fff"/>
        <path id="Path_8853" data-name="Path 8853" d="M487.549,40.125l-.783.393V21.057l.783-.38Z" transform="translate(-423.23 -17.978)" fill="#fff"/>
        <path id="Path_8854" data-name="Path 8854" d="M498.549,34.77l-.783.393V15.727l.783-.38Z" transform="translate(-432.795 -13.344)" fill="#fff"/>
        <path id="Path_8855" data-name="Path 8855" d="M512.128.437V48.654l-.03-.017V19.807l-3.332,1.672V2.067Z" transform="translate(-442.359 -0.38)" fill="#fff"/>
      </g>
    </g>
    <g id="Group_19959" data-name="Group 19959" transform="translate(69.769 0.056)">
      <g id="Group_19958" data-name="Group 19958" clip-path="url(#clip-path-9)">
        <rect id="Rectangle_5803" data-name="Rectangle 5803" width="14.067" height="9.21" transform="translate(0 0)" fill="#fff"/>
      </g>
    </g>
    <g id="Group_19961" data-name="Group 19961" transform="translate(58.933 19.426)">
      <g id="Group_19960" data-name="Group 19960" clip-path="url(#clip-path-10)">
        <rect id="Rectangle_5804" data-name="Rectangle 5804" width="33.151" height="19.12" transform="translate(-8.396 28.949) rotate(-73.827)" fill="#fff"/>
      </g>
    </g>
    <g id="Group_19963" data-name="Group 19963" transform="translate(58.905 -0.001)">
      <g id="Group_19962" data-name="Group 19962" transform="translate(0 0)" clip-path="url(#clip-path-11)">
        <rect id="Rectangle_5805" data-name="Rectangle 5805" width="10.86" height="8.484" transform="translate(0 0)" fill="#fff"/>
      </g>
    </g>
    <g id="Group_19965" data-name="Group 19965" transform="translate(0 -0.001)">
      <g id="Group_19964" data-name="Group 19964" clip-path="url(#clip-path)">
        <path id="Path_8859" data-name="Path 8859" d="M301.313,376.56l-39.721-17.037-36.636,17.909,29.571-19.238,7.172-4.666,3.634,2.113.03.017,10.934,6.358,3.133,1.821Z" transform="translate(-195.593 -307.383)" fill="#fff"/>
      </g>
    </g>
  </g>
</svg>
